# xmcd CD database file
#
# Track frame offsets:
#	150
#	900
#	1650
#	2400
#	3150
#	3900
#	4650
#	5400
#	6150
#	6900
#	7650
#	8400
#	203325
#
# Disc length: 4440 seconds
#
# Revision: 1
# Processed by: cddbd v1.5.2PL0 Copyright (c) Steve Scherf et al.
# Submitted via: CDex 1.70beta3
#
DISCID=5311560d
DTITLE=HALCALI - HALCALI BACON
DYEAR=2003
DGENRE=Hip-Hop
TTITLE0=intro.HALCALI BACON
TTITLE1=タンデム
TTITLE2=ギリギリ・サーフライダー
TTITLE3=嗚呼ハルカリセンセーション
TTITLE4=おつかれSUMMER
TTITLE5=ハルカリズム "CANDY HEARTS
TTITLE6=Conversation of a mystery
TTITLE7=Peek-A-Boo
TTITLE8=Hello, Hello, Alone
TTITLE9=スタイリースタイリー
TTITLE10=エレクトリック先生
TTITLE11=続・真夜中のグランド
TTITLE12=CCCD
EXTD=YEAR: 2003
EXTT0=
EXTT1=
EXTT2=
EXTT3=
EXTT4=
EXTT5=
EXTT6=
EXTT7=
EXTT8=
EXTT9=
EXTT10=
EXTT11=
EXTT12=
PLAYORDER=
